<?xml version="1.0" ?><!-- Uploaded to: SVG Repo, www.svgrepo.com, Generator: SVG Repo Mixer Tools -->
<svg width="800px" height="800px" viewBox="0 0 24 24" fill="none" xmlns="http://www.w3.org/2000/svg"><path d="M4 21V18.5C4 15.4624 6.46243 13 9.5 13H14.5C17.5376 13 20 15.4624 20 18.5V21M8 21V18M16 21V18M11 9H7.5C6.67157 9 6 8.32843 6 7.5V6.5C6 5.16725 6.57938 3.96983 7.5 3.14585M18 8.00001V6.50001C18 5.16726 17.4206 3.96983 16.5 3.14585M20 7.5V6M4 7.5V6M16 7C16 9.20914 14.2091 11 12 11C9.79086 11 8 9.20914 8 7C8 4.79086 9.79086 3 12 3C14.2091 3 16 4.79086 16 7Z" stroke="#000000" stroke-linecap="round" stroke-linejoin="round" stroke-width="1.4"/></svg>