<?xml version="1.0" encoding="iso-8859-1"?>
<!-- Uploaded to: SVG Repo, www.svgrepo.com, Generator: SVG Repo Mixer Tools -->
<svg fill="#000000" height="800px" width="800px" version="1.1" id="Layer_1" xmlns="http://www.w3.org/2000/svg" xmlns:xlink="http://www.w3.org/1999/xlink" 
	 viewBox="0 0 511.653 511.653" xml:space="preserve">
<g transform="translate(1)">
	<g>
		<path d="M505.88,254.12c-15.36-20.48-30.72-20.48-68.267-0.853l-36.868,22.721c5.084-15.987,7.855-32.661,7.855-50.028
			c0-77.815-52.929-142.853-124.882-161.215c-0.661-0.17-1.328-0.322-1.991-0.484c-0.738-0.179-1.474-0.36-2.215-0.529
			c-1.019-0.233-2.042-0.451-3.067-0.665c-0.382-0.079-0.763-0.158-1.146-0.235c-1.13-0.227-2.262-0.445-3.398-0.648
			c-0.211-0.038-0.423-0.072-0.634-0.109c-3.594-0.629-7.217-1.138-10.866-1.529c-0.493-0.053-0.984-0.111-1.478-0.16
			c-0.884-0.087-1.77-0.162-2.657-0.235c-0.759-0.063-1.519-0.122-2.28-0.175c-0.757-0.052-1.514-0.101-2.273-0.143
			c-0.974-0.054-1.951-0.096-2.929-0.134c-0.593-0.023-1.184-0.051-1.778-0.067c-1.597-0.045-3.197-0.073-4.805-0.073
			c-1.687,0-3.367,0.035-5.043,0.086c-0.19,0.006-0.381,0.014-0.571,0.021c-25.19,0.853-49.051,7.411-70.268,18.488
			c-1.742,0.886-3.473,1.795-5.184,2.739l-0.479,0.369c-15.771,9.037-29.947,20.617-41.946,34.217l-0.241-0.452l-8.533,11.093
			c-2.56,3.49-4.963,7.083-7.235,10.753c-12.792,20.317-21.324,43.672-24.3,68.854c-7.908-0.682-14.711-0.956-19.666-1.061v-25.64
			H-1v273.067h59.733v-25.6h110.933c17.067,0,34.987-0.853,52.053-2.56l110.933-17.067c4.267,0,8.533-0.853,11.947-1.707
			c10.24-1.707,19.627-6.827,28.16-14.507l128.853-102.4C511.853,279.72,513.56,264.36,505.88,254.12z M138.947,216.573
			c-0.853,0-1.707,0.853-2.56,0.853c-9.498-3.392-20.086-6.228-31.313-8.113c-2.965-0.556-5.897-1.047-8.773-1.481
			c1.735-20.405,8.55-39.96,19.606-57.82l5.12,14.507c0.853,5.12,3.413,20.48,10.24,29.013c1.707,3.413,3.413,5.12,5.12,5.973
			l0.853,0.853c0,0,0,0.853,0,4.267C137.24,210.6,138.093,214.013,138.947,216.573z M298.52,214.866l-0.853-0.853l-2.56-0.853
			c-0.853,0-0.853,0-2.56-0.853l-6.827-3.413c-2.56-1.707-6.827-4.267-12.8-5.12c-3.413,0-5.973,0-8.533,0
			c-3.413-0.853-7.68,0-13.653,0c-5.973,0.853-12.8,0.853-21.333,0.853c-9.387,0-9.387,0-9.387,0
			c-1.707-0.853-3.413-1.707-5.973-2.56c0,0,0.853,0,0.853-0.853c2.56-4.267,0.853-8.533,0-11.093
			c-0.853-1.707-1.707-4.267-0.853-8.533c0-0.853,0-1.707,0-1.707c0.853-0.853,0.853-0.853,1.707-0.853
			c2.56-0.853,6.827-2.56,11.093-7.68h2.56c14.507,1.707,24.747,1.707,29.867-0.853c1.707,0,5.12,0.853,10.24,3.413l5.12,2.56
			l4.267-4.267c0.853-0.853,2.56-3.413,2.56-5.973c4.267-3.413,12.8-10.24,19.627-12.8c8.533-3.413,11.093-8.533,12.8-12.8
			c0.853-2.56,0.853-3.413,3.413-4.267c9.387-5.12,14.507-11.093,17.92-15.36c3.413,0.853,9.387,2.56,14.507,3.413
			c0.853,0,0.853,0.853,1.707,1.707c-0.853,5.973-1.707,10.24-2.56,13.653s-0.853,10.24-0.853,23.04c0,10.24,0,15.36-0.853,18.773
			c0,5.12-0.853,9.387,1.707,17.067c1.707,5.973,3.413,10.24,5.12,14.507c1.707,4.267,2.56,6.827,3.413,10.24
			c0.853,3.413,1.707,5.12,2.56,6.827c0,0.853-0.853,2.56-1.707,5.12c-1.707,3.413-2.56,4.267-3.413,5.12
			c-1.707,0.853-3.413,2.56-4.267,4.267c-1.707-1.707-3.413-2.56-5.12-4.267c-2.56-1.707-4.267-2.56-5.12-3.413
			c0-0.853-0.853-1.707-0.853-4.267c-4.267-5.973-8.533-6.827-12.8-6.827c-1.707,0-5.973,0-16.213-5.12
			C301.933,216.573,299.373,214.866,298.52,214.866z M216.6,101.373c-9.387-3.413-16.213-1.707-22.187-0.853
			c-2.56,0-4.267,0.853-6.827,0.853c0.81-3.24-0.692-7.25-5.224-12.027c18.404-8.18,38.68-12.72,59.838-12.72
			c19.26,0,37.718,3.728,54.687,10.482c-2.091,1.835-2.79,4.494-3.487,6.584c-5.12,2.56-6.827,5.12-8.533,8.533
			c-0.853,0.853-0.853,0.853-1.707,0.853c-4.267,0.853-11.093,2.56-17.067,10.24c-0.853,0.853-0.853,0.853-0.853,0.853
			c-0.853,0-0.853,0-1.707,0c-2.56,0.853-7.68,0.853-12.8,5.973c-2.56-0.853-5.12-1.707-8.533-1.707c-1.707,0-2.56,0-3.413,0.853
			v-5.12C237.08,109.906,233.667,107.346,216.6,101.373z M164.503,98.781c0.304,0.295,0.602,0.59,0.897,0.885
			c-1.707,1.707-4.267,4.267-3.413,8.533c0.853,6.827,7.68,9.387,12.8,10.24c9.387,2.56,16.213,0.853,21.333,0s8.533-1.707,12.8,0
			c5.973,1.707,9.387,3.413,11.093,4.267c0,3.413,0.853,6.827,3.413,9.387s7.68,5.973,17.067,3.413c0.853,0,1.707,0,1.707,0
			c0,0.853,0.853,0.853,0.853,0.853c2.56,1.707,5.12,2.56,7.68,2.56c3.413,0,6.827-1.707,10.24-5.12
			c1.707-1.707,2.56-1.707,4.267-1.707c3.413-0.853,8.533-0.853,13.653-7.68c2.56-3.413,4.267-3.413,7.68-4.267
			c2.56,0,4.267-0.853,6.827-1.707c4.267-2.56,5.973-5.973,6.827-7.68c0,0,0,0-0.853,0c3.413-0.853,5.12-2.56,6.827-5.12h5.12
			c5.24,0,7.197-2.627,9.903-6.153c1.351,0.849,2.692,1.713,4.015,2.604l-1.971,5.255c0,0-3.413,7.68-12.8,12.8
			c-8.533,4.267-11.093,9.387-12.8,13.653c-0.853,1.707-0.853,2.56-4.267,2.56c-10.24,5.12-23.04,14.507-26.453,17.92
			c-11.093-3.413-15.36-0.853-16.213,0c-1.707,0.853-7.68,0.853-14.507,0c-1.707-3.413-4.267-5.12-6.827-5.973
			c-7.68-2.56-13.653,5.973-15.36,8.533c-1.707,3.413-3.413,4.267-5.973,5.12c-5.12,1.707-10.24,5.12-11.947,15.36
			c-0.853,5.12-0.853,9.387,0,12.8c-5.12,2.56-9.387,8.533-9.387,12.8c0,5.12,2.56,9.387,6.827,10.24
			c11.093,3.413,15.36,5.12,17.92,5.973c5.12,1.707,6.827,2.56,17.92,2.56c9.387,0,17.067,0,21.333-0.853c2.56,0,5.973,0,7.68,0
			c1.707,0.853,5.12,2.56,8.533,0.853c0.853,0,1.707,0,2.56,0c1.707,0,3.413,1.707,5.12,2.56c1.707,0.853,3.413,1.707,5.12,2.56
			c1.707,0.853,3.413,1.707,5.12,2.56c0.853,0,1.707,0.853,2.56,0.853c1.707,1.707,5.973,3.413,13.653,7.68
			c11.947,5.973,18.773,6.827,23.04,6.827c0.853,0,0.853,0.853,0.853,0.853c0.853,2.56,2.56,3.413,4.267,5.12
			c0.853,0,2.56,1.707,5.12,3.413s3.413,3.413,5.12,4.267c4.267,3.413,7.68,5.973,14.507,5.973c1.707,0,2.56,0,3.413,0l8.533-0.853
			l-0.853-8.533c0-0.853,0-0.853,0-1.707c2.56-2.56,5.12-5.12,7.68-11.093c5.12-10.24,5.12-14.507,1.707-20.48
			c-0.853-0.853-0.853-0.853-0.853-1.707c-0.853-4.267-2.56-8.533-4.267-12.8c-0.853-3.413-2.56-7.68-4.267-13.653
			c-1.707-5.12-1.707-5.973-0.853-10.24c0-3.413,0.853-9.387,0.853-21.333c0-9.387,0-13.653,0-15.36c0,0,0.309-1.392,0.857-4.018
			c16.137,23.709,25.597,52.159,25.597,82.525c0,23.442-5.761,45.24-15.649,66.202l-11.658,7.185
			c-10.172,5.934-32.973,7.656-54.186,7.679c1.322-2.695,1.943-5.59,1.841-8.692c0.056-5.769-2.395-12.255-7.388-19.467
			c-13.653-19.627-36.693-31.573-61.44-31.573h-33.28c-17.92,0-34.987-5.12-48.64-15.36c-2.627-1.97-5.422-3.79-8.341-5.479
			c3.175-5.784,2.35-9.951,1.514-13.295c-0.853-1.707-0.853-3.413-0.853-7.68c0.853-10.24-1.707-14.507-6.827-18.773
			c-0.853-0.853-1.707-1.707-3.413-3.413c-3.413-3.413-5.973-14.507-6.827-21.333l-8.533-27.307v-0.853c0,0-0.248-0.497-0.73-1.46
			C137.673,118.615,150.323,107.541,164.503,98.781z M41.667,435.026h-25.6V196.093h25.6v8.533v221.867V435.026z M491.373,276.306
			L361.667,377l-0.853,0.853c-5.12,5.973-11.947,9.387-19.627,10.24c-3.413,0.853-5.973,0.853-9.387,0.853l-112.64,17.067
			c-16.213,2.56-33.28,3.413-49.493,3.413H58.733c0,0,0-116.886,0-166.198v-21.535c15.734,0.715,51.243,2.636,78.908,15.796
			c4.967,2.627,9.717,5.607,14.106,8.951c16.213,11.947,36.693,18.773,58.88,18.773h0.85c0.001,0,0.002,0,0.003,0h32.429
			c18.773,0.001,36.692,8.534,46.931,23.893c4.178,5.013,5.078,10.018,4.313,11.827c-0.016,0.039-0.029,0.084-0.047,0.12
			c-2.546,4.243-12.686,5.953-23.707,6.811c-0.349,0.004-0.684,0.015-1.04,0.015c-2.759,0-5.467,0-7.68,0h-0.853h-81.92
			c-26.453,0-42.667,12.8-42.667,34.133c0,5.12,3.413,8.533,8.533,8.533c5.12,0,8.533-3.413,8.533-8.533
			c0-4.267,0-17.067,25.6-17.067h81.067h1.707c2,0,4.467,0,7.68,0c0.549,0,1.114,0,1.707,0c0.853,0,2.56,0,4.267,0
			c40.107,0.853,77.653,0,97.28-10.24L447,269.48c35.84-17.92,39.253-13.653,46.08-3.413
			C494.787,268.626,494.787,273.746,491.373,276.306z"/>
	</g>
</g>
</svg>